<svg width="239" height="239" viewBox="0 0 239 239" fill="none" xmlns="http://www.w3.org/2000/svg">
<path d="M58.2563 170.288C66.7209 163.815 76.1813 158.711 86.6375 154.977C97.0938 151.242 108.048 149.375 119.5 149.375C130.952 149.375 141.906 151.242 152.363 154.977C162.819 158.711 172.279 163.815 180.744 170.288C186.553 163.483 191.076 155.765 194.312 147.134C197.548 138.504 199.167 129.292 199.167 119.5C199.167 97.4257 191.407 78.6293 175.889 63.1109C160.371 47.5925 141.574 39.8333 119.5 39.8333C97.4257 39.8333 78.6294 47.5925 63.111 63.1109C47.5926 78.6293 39.8334 97.4257 39.8334 119.5C39.8334 129.292 41.4516 138.504 44.688 147.134C47.9245 155.765 52.4472 163.483 58.2563 170.288ZM119.5 129.458C109.708 129.458 101.451 126.097 94.7287 119.376C88.0068 112.654 84.6459 104.397 84.6459 94.6042C84.6459 84.8118 88.0068 76.5547 94.7287 69.8328C101.451 63.1109 109.708 59.75 119.5 59.75C129.292 59.75 137.549 63.1109 144.271 69.8328C150.993 76.5547 154.354 84.8118 154.354 94.6042C154.354 104.397 150.993 112.654 144.271 119.376C137.549 126.097 129.292 129.458 119.5 129.458ZM119.5 219.083C105.724 219.083 92.7785 216.469 80.6625 211.241C68.5465 206.013 58.0073 198.918 49.0448 189.955C40.0823 180.993 32.987 170.453 27.7589 158.338C22.5307 146.222 19.9167 133.276 19.9167 119.5C19.9167 105.724 22.5307 92.7785 27.7589 80.6625C32.987 68.5465 40.0823 58.0073 49.0448 49.0448C58.0073 40.0823 68.5465 32.987 80.6625 27.7589C92.7785 22.5307 105.724 19.9167 119.5 19.9167C133.276 19.9167 146.222 22.5307 158.338 27.7589C170.453 32.987 180.993 40.0823 189.955 49.0448C198.918 58.0073 206.013 68.5465 211.241 80.6625C216.469 92.7785 219.083 105.724 219.083 119.5C219.083 133.276 216.469 146.222 211.241 158.338C206.013 170.453 198.918 180.993 189.955 189.955C180.993 198.918 170.453 206.013 158.338 211.241C146.222 216.469 133.276 219.083 119.5 219.083Z" fill="#6750A4"/>
</svg>
