<svg width="48" height="48" viewBox="0 0 48 48" fill="none" xmlns="http://www.w3.org/2000/svg">
<path d="M22 8H8C6.93913 8 5.92172 8.42142 5.17157 9.17157C4.42143 9.92171 4 10.9391 4 12V40C4 41.0609 4.42143 42.0783 5.17157 42.8284C5.92172 43.5786 6.93913 44 8 44H36C37.0609 44 38.0783 43.5786 38.8284 42.8284C39.5786 42.0783 40 41.0609 40 40V26M37 5C37.7956 4.20435 38.8748 3.75735 40 3.75735C41.1252 3.75735 42.2044 4.20435 43 5C43.7956 5.79564 44.2426 6.87478 44.2426 8C44.2426 9.12521 43.7956 10.2043 43 11L24 30L16 32L18 24L37 5Z" stroke="#6750A4" stroke-width="4" stroke-linecap="round" stroke-linejoin="round"/>
</svg>
