<svg width="1600" height="960" viewBox="0 0 1600 960" fill="none" xmlns="http://www.w3.org/2000/svg">
<g clip-path="url(#clip0_2701_303)">
<path d="M1600 0H0V960H1600V0Z" fill="#F97579"/>
<path d="M1619.59 976.53C1816.45 976.53 1976.04 816.942 1976.04 620.082C1976.04 423.221 1816.45 263.634 1619.59 263.634C1422.73 263.634 1263.14 423.221 1263.14 620.082C1263.14 816.942 1422.73 976.53 1619.59 976.53Z" fill="url(#paint0_linear_2701_303)"/>
<path d="M1526.57 1111.02C1723.43 1111.02 1883.02 951.429 1883.02 754.568C1883.02 557.707 1723.43 398.12 1526.57 398.12C1329.71 398.12 1170.12 557.707 1170.12 754.568C1170.12 951.429 1329.71 1111.02 1526.57 1111.02Z" stroke="#FAD6D6" stroke-miterlimit="10"/>
<path d="M431.5 855C459.39 855 482 832.391 482 804.5C482 776.61 459.39 754 431.5 754C403.61 754 381 776.61 381 804.5C381 832.391 403.61 855 431.5 855Z" fill="url(#paint1_linear_2701_303)"/>
<path d="M1285.62 1196.25C1418.62 1196.25 1526.43 1088.44 1526.43 955.448C1526.43 822.454 1418.62 714.642 1285.62 714.642C1152.63 714.642 1044.82 822.454 1044.82 955.448C1044.82 1088.44 1152.63 1196.25 1285.62 1196.25Z" fill="url(#paint2_linear_2701_303)"/>
<path d="M86.4479 785.278C283.309 785.278 442.896 625.691 442.896 428.83C442.896 231.97 283.309 72.3823 86.4479 72.3823C-110.413 72.3823 -270 231.97 -270 428.83C-270 625.691 -110.413 785.278 86.4479 785.278Z" fill="url(#paint3_linear_2701_303)"/>
<path d="M86.4479 236.254C219.442 236.254 327.254 128.442 327.254 -4.55203C327.254 -137.546 219.442 -245.358 86.4479 -245.358C-46.5458 -245.358 -154.358 -137.546 -154.358 -4.55203C-154.358 128.442 -46.5458 236.254 86.4479 236.254Z" fill="url(#paint4_linear_2701_303)"/>
<path d="M1393.77 -21C1380.46 -19.7599 1367.28 -5.59525 1361.74 -1.64568C1342.64 11.965 1329.48 25.7802 1323.14 41.3992C1321.68 45.0046 1314.51 63.6623 1328.44 64.5609C1345.72 65.6756 1359.18 61.7604 1371.07 57.0519C1377.83 54.374 1399.58 43.2261 1405.12 51.235C1418.77 70.9528 1411.68 94.1443 1411.93 114.374C1412.01 120.424 1405.56 146.08 1419.5 150.862C1431.93 155.126 1453.39 141.126 1459.35 138.171C1480.15 127.863 1474.45 165.526 1475.75 170.957C1477.37 177.755 1492.43 169.81 1497.19 167.89C1512.69 161.63 1514.64 179.322 1516.1 182.696C1521.9 196.064 1516.65 205.067 1546.12 209.56C1563.68 212.237 1583.33 228.873 1589 236" stroke="#FC9B5F" stroke-width="3" stroke-linecap="round"/>
<path d="M327.221 95C327.911 103.628 354.878 148.816 363.923 149.378C371.981 149.878 369.063 106.644 388.542 107.853C404.074 108.816 399.032 144.069 414.29 145.016C425.443 145.708 441.61 103.617 449.71 108.841C454.1 111.672 456.139 125.176 465.776 122.629C475.57 120.039 488.615 98.4881 500.617 110.128C509.814 119.048 521.096 129.256 535.892 119.336C542.496 114.909 555.187 116.373 558.602 112.166" stroke="#FCA459" stroke-width="3" stroke-linecap="round"/>
<path d="M-1.00372 787.067C-32.078 785.046 -11.0453 812.366 -14.5245 821.131C-37.7277 838.427 -1.22957 855.893 13.6533 849.239C38.3743 838.186 38.2352 848.399 41.2001 869.756C46.2075 905.825 103.966 859.937 117.455 852.108C150.036 833.198 122.163 889.293 136.497 889.355C155.949 889.439 172.147 861.992 189.364 888.355C195.408 897.609 197.214 913.4 207.817 921.046C220.158 929.943 244.04 915.798 253.883 913.024C275.962 906.801 262.921 940.931 281.034 947.288C293.47 951.653 325.836 927.641 327.053 946.764" stroke="#B28AF1" stroke-width="3" stroke-linecap="round"/>
<path d="M1284.86 296.715C1333.93 296.715 1373.72 256.932 1373.72 207.858C1373.72 158.783 1333.93 119 1284.86 119C1235.78 119 1196 158.783 1196 207.858C1196 256.932 1235.78 296.715 1284.86 296.715Z" fill="url(#paint5_linear_2701_303)"/>
</g>
<defs>
<linearGradient id="paint0_linear_2701_303" x1="1619.59" y1="976.529" x2="1619.59" y2="263.652" gradientUnits="userSpaceOnUse">
<stop stop-color="#FCA35A"/>
<stop offset="1" stop-color="#E376A1"/>
</linearGradient>
<linearGradient id="paint1_linear_2701_303" x1="482.002" y1="804.485" x2="381.009" y2="804.485" gradientUnits="userSpaceOnUse">
<stop stop-color="#FDA857"/>
<stop offset="1" stop-color="#F97678"/>
</linearGradient>
<linearGradient id="paint2_linear_2701_303" x1="1044.82" y1="955.439" x2="1526.44" y2="955.439" gradientUnits="userSpaceOnUse">
<stop stop-color="#FB8F67"/>
<stop offset="1" stop-color="#CD7FC6"/>
</linearGradient>
<linearGradient id="paint3_linear_2701_303" x1="86.4389" y1="785.269" x2="86.4389" y2="72.3915" gradientUnits="userSpaceOnUse">
<stop stop-color="#FCA558"/>
<stop offset="1" stop-color="#C980CC"/>
</linearGradient>
<linearGradient id="paint4_linear_2701_303" x1="86.4389" y1="236.25" x2="86.4389" y2="-245.372" gradientUnits="userSpaceOnUse">
<stop stop-color="#C383D6"/>
<stop offset="1" stop-color="#FA7F72"/>
</linearGradient>
<linearGradient id="paint5_linear_2701_303" x1="1196" y1="184.995" x2="1373.71" y2="230.718" gradientUnits="userSpaceOnUse">
<stop stop-color="#FCA459"/>
<stop offset="1" stop-color="#C383D5"/>
</linearGradient>
<clipPath id="clip0_2701_303">
<rect width="1600" height="960" fill="white"/>
</clipPath>
</defs>
</svg>
